<mxfile host="app.diagrams.net" modified="2023-12-04T01:54:44.239Z" agent="Mozilla/5.0 (Windows NT 10.0; Win64; x64) AppleWebKit/537.36 (KHTML, like Gecko) Chrome/119.0.0.0 Safari/537.36 Edg/119.0.0.0" version="22.1.5" etag="AgPrw9zevKx0iuDS5iYQ" type="github">
  <diagram name="Halaman-1" id="rFKeB7bUi5W4AWJEKBIh">
    <mxGraphModel>
      <root>
        <mxCell id="0" />
        <mxCell id="1" parent="0" />
      </root>
    </mxGraphModel>
  </diagram>
</mxfile>
